<?xml version="1.0" encoding="UTF-8" standalone="no"?>
<svg
   xmlns:dc="http://purl.org/dc/elements/1.1/"
   xmlns:cc="http://creativecommons.org/ns#"
   xmlns:rdf="http://www.w3.org/1999/02/22-rdf-syntax-ns#"
   xmlns:svg="http://www.w3.org/2000/svg"
   xmlns="http://www.w3.org/2000/svg"
   xml:space="preserve"
   width="6.6162362in"
   height="9.3202105in"
   style="fill-rule:evenodd;image-rendering:optimizeQuality;shape-rendering:geometricPrecision;text-rendering:geometricPrecision"
   viewBox="0 0 6616.4601 9319.4933"
   version="1.1"
   id="svg11928">
 <path
   id="North_Goa"
   d="m 1857.6747,10.118664 c -2.4394,-0.2382374 -5.0221,-0.1918817 -7.7721,0.183131 -19,2.000005 -48.9904,95.991065 -62.9904,115.991065 -22,33.00001 2.9938,16.0008 21.9938,33.00079 65.9999,49 -62.9954,52.00371 -87.9954,52.00371 5,0 -17.0141,87.99121 -22.0141,95.99121 -11,23 -32.9945,47.00065 -54.9945,53.00065 -20,5 -45.0006,-10.98791 -53.0007,16.0121 -4.9999,20 14.003,28.00477 19.003,45.00477 12,33 -22.0059,67.99121 -38.0059,95.99121 -11,18.99999 -24.9967,43.99653 -40.9966,60.99653 -12.0001,16 -34.0007,41.00783 -53.0006,44.00783 -22.0001,0 -37.9905,-19.01409 -62.9905,-22.01409 -22,-2.99999 -36.0099,0.0177 -50.0098,14.01822 -22,16 -27.0057,29.99467 -58.0057,34.99467 -38.0001,9 -76.9911,5.99282 -115.9911,8.99281 -13,22.00001 -5.0008,55.00864 -33.0009,77.00863 -24.9999,19.00001 -54.9993,3.00413 -79.9993,-7.99587 -24,-11 -51.9933,-20.01609 -81.99342,-28.01609 -21.99991,-5 -25.01387,-4.98456 -42.01392,-24.98456 -16.00002,-16 -27.00373,-38.01702 -52.00374,-41.01701 -19.00002,0 -32.98945,14.01208 -49.9895,16.01209 -49,11 -91.00506,-19.00705 -138.00509,-11.00705 -32.99997,9 -69.00035,20.00784 -93.00044,44.00784 -8.99999,9.00001 -10.9937,22.98656 -21.99366,30.98656 -17.00005,11 -30.99875,5.00705 -46.99867,11.00705 -25.24471,7.21276 -43.21188,37.08347 -70.68114,37.04959 0.65106,1.25844 1.22702,2.54948 1.66839,3.94708 4.99996,16.99999 -30.98053,6.00198 -32.98049,6.00198 -16.99995,-5.99999 -42.01684,3.00506 -61.01686,5.00506 -22.00001,0 -38.99652,16.99986 -60.99654,19.99986 -16.00002,0 -32.99664,32.99881 -40.9967,26.9988 -25.00001,-8 -41.00764,-2.00718 -64.00768,8.99281 -19.00002,8 -29.9855,-22.00078 -37.98546,-33.00079 -28,22.00001 8.00288,71.01573 19.00294,88.01568 10.99995,14 24.98449,32.9925 24.98449,48.99258 3,13.9999 -2.98875,31.0047 3.01125,45.00475 7.99996,16.00002 15.9896,22.00074 29.98955,33.00084 8.00007,7.9999 -7.99579,22.0007 -7.99579,33.0008 3,32.9999 22.00575,32.9853 38.00577,57.9853 11.00006,19 8.98874,44.0016 16.9887,66.0016 8.00006,29.9999 3.00906,66.0115 17.00901,96.0116 11.00006,22 23.99477,43.9923 34.99472,68.9923 9,20 6.00906,41.9965 17.00902,60.9965 11.00006,19 13.9938,44.0016 21.99376,66.0016 3,8 13.99787,14 13.99787,0 -3,-10.9999 -6.00197,-15.9957 -6.00197,-27.9957 0,-19 16.99984,-4.998 19.99984,6.002 4.99996,14 2.00913,29.9987 -2.99083,46.9986 -3,14.0001 -14.01318,35.9926 -9.01312,48.9926 3,12 16.99985,8.9998 19.99985,19.9999 10.99995,30 22.01699,58.0044 41.01701,85.0044 19.00002,28 13.98245,68.9974 38.98246,93.9974 24.99991,22 47.01701,24.9965 41.01702,60.9965 -5.00007,22 13.9937,38.0149 21.99366,55.0149 8.00006,16 43.99461,57.9917 54.99456,15.9918 3,-11.0001 -1.98881,-23.9947 3.01115,-34.9947 8.00006,-11 22.00085,-14.011 33.0008,-23.011 22.00002,-13.0001 46.98326,-21.9856 71.98327,-37.9856 3,0 16.00002,-17.009 0,-17.009 -14.00006,0 -21.98241,14.007 -38.98246,11.007 -4.99997,-7.9999 101.99522,-69.0099 107.99521,-30.0099 3,17 -36.01393,40.9945 -42.01392,54.9945 -11.00006,28 11.016,47.0077 28.01605,64.0077 25.00001,24 10.99798,46.0067 -6.00197,71.0067 -19.00002,30.9999 -45.9975,27.9986 -73.99751,46.9986 -28.00001,19 -44.01065,46.9957 -83.01062,27.9957 -23.99997,-14 -29.99039,-38.9957 -62.99036,-27.9957 -2.9999,17 10.98663,33.0007 10.98663,53.0007 0,15.9999 0.009,32.9925 -2.99083,48.9925 0,17 -3.00917,36.0099 2.99083,50.0098 5.00006,11.0001 16.01408,13.9846 22.01407,24.9846 6,13 -3.00916,30.0078 2.99083,44.0079 3,10.9999 10.99788,19.0007 13.99787,33.0008 8.00007,25 29.99675,46.9974 40.9967,73.9974 3,11 14.01819,22.0008 14.01819,33.0008 0,14 -11.00704,24.9936 -11.00704,41.9936 2.00006,19 33.00372,49.0129 52.00373,49.0129 35.99997,0 27.99158,21.9895 35.99164,49.9895 3,16.9999 7.99787,36.0037 13.99787,52.0036 4.99996,28 11.00797,45.0128 24.008,69.0128 11.99999,22 8.98863,43.9874 16.9887,63.9873 27.9999,77 41.01076,154.0056 63.01067,231.0056 11.00006,42 20.00495,83.0072 25.0049,124.0073 0,35.9999 10.99287,71.9952 8.99291,107.9952 0,30 1.99465,60.9924 34.99462,68.9924 32.99997,5 39.00569,-28.0079 58.00571,-44.0078 22,10.9999 101.9911,36 115.9911,0 6,-14.0001 -79.9974,-41.9876 -93.9973,-43.9875 -19.0001,-6 -44.00298,-27.9987 -19.003,-46.9987 19,-17 6.0141,-39.0057 22.0141,-58.0057 28,-33 27.9966,-76.9891 60.9965,-109.9891 -5.9999,22.0001 -6.009,48.9924 -17.009,68.9924 -8,19 -18.9846,32.9945 -24.9846,54.9945 -4.9999,19.0001 -16.0009,37.9997 -13.0009,59.9997 2,16.9999 29.9814,43.9987 45.9814,46.9987 20,2.9999 39.0169,-19.003 61.0169,-19.003 25,-3 43.9923,0.01 68.9923,11.0071 25,13.9999 38.9925,33.0099 68.9925,30.0099 19,0 36.0037,-0.021 52.0037,-8.0162 53,-25 14.0069,-60.9932 31.0069,-101.9932 19,-55 68.9891,-52.0049 109.989,-25.0049 36.0001,28 102.0033,10.9987 132.0032,46.9986 9,8 22.0112,36.017 3.0112,41.0171 -19,5.9999 -44.0108,-2.0163 -63.0108,-8.0163 -20,-8 -42.0015,-15.9866 -66.0015,-10.9867 -23.0001,8 -33.9895,33.0007 -49.9895,53.0007 -36,38 -75.0085,81.9827 -97.0085,131.9828 -22,47 3.0062,99.001 -21.9938,146.001 -13,28.0001 -52.0064,99.0065 -91.0065,91.0066 -22,-3 -40.9945,-13.9897 -54.9946,-29.9897 -10.9999,-14.0001 -25.0078,-22.0091 -44.0077,-17.009 -19,7.9999 -4.9981,25.0007 6.002,33.0008 22,13.9999 35.0037,25.0078 52.0037,44.0078 14,17 32.9986,24.9936 46.9986,41.9935 16,13.0001 11.0099,38.0038 30.01,52.0038 11,8 41.9958,14.0041 27.9957,-7.9959 -9,-14 -13.9928,-22.0027 -8.9928,-39.0028 20,0 49.9986,-3.0161 66.9985,-8.0162 19,-6 26.9926,-18.9867 48.9926,-10.9866 22,10.9999 46.9924,5.0029 68.9923,19.0028 20.0001,8.0001 39.0058,6.0021 58.0058,6.0021 39,0 75.0044,10.9915 105.0043,35.9915 3,0 33.0008,26.9959 33.0008,7.9959 0,-19 14.003,-25.0027 19.003,-39.0028 19.9999,-3 41.9965,-2.9908 60.9965,-2.9908 14,3 13.9887,17.005 16.9887,25.0049 5,17.0001 10.9988,60.9832 26.9987,71.9833 19.0001,10.9999 61.0058,39.0107 58.0058,63.0108 -3,34 3.007,72.0043 11.007,105.0042 11.0001,50.0001 104.9941,-30.0049 134.994,-5.0049 22.0001,18.9999 44.0036,13.0008 72.0036,13.0008 25,0 29.9925,23.005 48.9925,25.0049 -10.9999,-40.9999 -92.9841,-26.9973 -84.9841,-73.9974 33,-6 62.9953,21.9876 87.9954,43.9875 21.9999,17 43.9853,50.0036 57.9853,72.0035 14,27.0001 22.0037,66.0087 52.0037,77.0087 25,11.0001 47.0147,24.9846 75.0147,24.9846 22,-3 40.9965,0 60.9966,0 19,0 10.9917,-8.9999 15.9918,-19.9999 10.9999,-30 18.9929,-23.9987 -11.0071,-46.9986 -14,-8.0001 -15.9868,-21.9947 -10.9867,-34.9948 3,-5.9999 18.9938,-24.9978 21.9938,-13.9978 7.9999,16 19.0118,43.9938 36.0119,21.9937 5,-6 32.9804,-29.9887 32.9804,-16.9887 0,6 -27.9888,47.0029 3.0112,39.0028 15.9999,-6 36.0058,-28.0078 38.0058,-44.0078 3,-17 5.9887,-47.0057 16.9887,-58.0057 39.0001,-47 91.0011,-62.9883 146.0011,-76.9883 19,-6 47.0098,-9.0008 50.0098,-33.0008 0,-19.9999 -6.0111,-43.9984 -3.0111,-66.9985 0,31 27.9958,60.9973 7.9957,93.9974 -15.9999,32.9999 -82.0001,30.9986 -113.0001,46.9986 -49,21.9999 -46.9925,49.9882 -68.9925,96.9881 -19,35 -47.0058,80.0165 -38.0058,121.0165 13,3 24.0059,21.9846 38.0058,24.9846 14.0001,3 21.9916,10.9979 35.9917,13.9979 44,4.9999 88.0092,8.0028 130.0093,19.0029 22,5 57.9974,14.0119 73.9974,36.0119 2.486,3.3739 3.7144,6.7415 4.5168,10.1322 1.3728,3.5966 2.5694,7.8522 3.4791,13.8554 0,5.1099 -1.4547,13.3444 -1.9329,21.0579 1.1972,4.8462 3.5002,9.8192 7.9348,14.9541 4.6759,4.6759 9.0549,10.0923 13.1638,15.8697 1.257,1.0976 2.5433,2.3942 3.8453,4.1302 22.5137,22.5137 24.0184,51.3278 22.7873,81.1388 2.4136,17.3674 9.7242,32.3707 7.2023,50.8643 0,19 -6.002,38.9854 -6.002,57.9854 0,2.3744 5.6088,42.2153 -0.4677,49.3588 0.1448,2.8459 0.349,5.8415 0.4677,8.6469 28,2 53.0056,11.0009 78.0056,13.0009 30,0 60.0065,-2 91.0065,0 52,6 87.9941,55.9994 114.9941,99.9993 14,25 20.0098,38.0079 50.0098,44.0079 17.0001,3 22.0009,0 33.0008,7.9959 8.0001,3 18.9958,16.9937 27.9958,21.9937 47,39 82.0045,55.0022 85.0045,119.0023 3,27 -5.0001,59.9952 0,87.9952 6,22.0001 16.9845,47.0036 24.9846,72.0036 15.9999,52 19.0049,116.006 25.0049,171.006 5,37.9999 21.9996,59.9924 59.9995,68.9923 53,11.0001 83.0093,-2.9937 130.0093,-21.9936 19,-9.0001 49.9924,-23.0111 68.9925,-23.0111 51.9999,0 49.9994,52.9995 79.9994,79.9995 21.9999,16.9999 41.0108,0 63.0107,0 25,-2 41.9965,6.0071 60.9965,11.007 41.0001,12 73.9911,33.9987 115.9912,46.9987 0,31 -2.9931,89.0002 11.007,113.0002 8,17 19.0049,22.0028 25.0049,39.0027 5,25.0001 -10.9991,49.9966 13.001,60.9966 16.9999,5 49.9984,-8.9887 66.9985,-16.9887 30,-11 37.9995,10.9916 59.9995,35.9916 9,14.0001 24.9825,40.9987 38.9825,46.9987 27,11 51.9994,-3.0041 79.9995,7.9959 16,-25 25.0058,-51.9883 38.0057,-76.9883 20.0001,-28 52.9986,-55.0015 66.9986,-86.0015 -28,-24 -74.9852,-57.0115 -77.9852,-96.0115 -2.0001,-29.9999 19.9867,-65.9881 10.9866,-96.9882 -24,0 -79.9861,-51.9974 -90.9861,-73.9973 -10.9999,-19.0001 -2.0071,-22.0171 8.9928,-41.0171 11.0001,-17 16.0049,-33.9987 25.0049,-46.9986 30,-61 54.9934,-121.9927 81.9934,-181.9928 11,-25 47.0079,-61.0064 44.0078,-91.0064 -2,-14 -19.0141,-24.9936 -22.0141,-41.9936 -2,-13 -2,-32.9987 0,-46.9986 3,-24.0001 22.0071,-63.0066 11.007,-91.0066 -10.9999,-23.9999 -47.0056,-40.9954 -58.0057,-67.9954 -4.9999,-14 3.0001,-34.0048 0,-45.0048 -10.9999,-38 -45.9882,-26.9988 -76.9882,-26.9988 -3,-17 2.9958,-29.9875 7.9959,-43.9875 -5.0001,-3 -11.001,-10.9979 -13.001,-13.9979 16,0 49.0058,13.9971 38.0059,-19.0029 -22,0 -49.0128,1.9888 -69.0128,-3.0111 -1.9999,-28.0001 3.0062,-60.9862 -1.9939,-90.9862 -25,5 -58.0055,-8.0141 -78.0055,-22.0141 -19.0001,-19 -13.0059,-21.9959 -38.0059,-7.9959 -14,5 -13.9804,22.0029 -32.9804,19.0029 -11,-3 26.9988,-64.0035 26.9987,-72.0036 -7.9999,-25 -44.0119,-18.9996 -36.0119,-59.9995 11,-69 86.0052,-71.9993 138.0052,-99.9993 22,-11.0001 44.0035,-25.0009 72.0036,-33.0008 22,-8 47.0015,-10.9897 66.0016,-29.9897 22,19 42.0015,32.9926 66.0015,48.9926 28,17 39.0007,36.0061 53.0007,-1.9939 24.9999,-58 33.0003,-132.9989 93.0004,-159.9989 31,-14 63.9881,-36.0119 96.9881,-36.0119 17,-3 28.0079,3.0111 44.0079,3.0111 25,0 24.9874,-2.9999 43.9874,-19.9998 25,-22 44.0087,-46.0149 77.0086,-55.0149 80,-19 154.9933,-8.003 234.9933,-19.0029 47,-6 94.0074,-29.9904 124.0073,-62.9905 36,-35.9999 62.9932,-85.991 101.9933,-115.991 13.9999,-14 24.9966,-11.0091 40.9966,-17.0091 31,-14 61.0107,-36.0057 83.0106,-58.0056 16,-14.0001 29.9987,-22.0009 46.9987,-33.0008 38,-22 69.0044,-40.9905 105.0043,-62.9905 38.0001,-19.9999 73.9891,-42.0077 109.9891,-64.0077 58.0001,-32.9999 121.0039,-59.9933 185.0038,-81.9933 0,-6 -0.01,-8.9979 1.994,-13.9978 5.9999,-31 21.9986,-86.0136 46.9985,-102.0136 20.0001,-14 53.0037,-19.9866 72.0036,-30.9866 27.0001,-13 54.9995,-26.9966 79.9995,-40.9967 25,-13.9999 55.0128,-19.0098 69.0127,-50.0098 11.0001,-26.9999 2.9938,-52.0025 21.9938,-79.0024 41,-58.0001 25,-91.9919 0,-148.9919 -11,-31.0001 -19.01,-56.0107 -30.01,-83.0107 -13.9999,-29.9999 -35.9873,-46.9944 -63.9874,-74.9944 -25,-22 -63.0107,-60.0003 -63.0107,-93.0003 -39,-6 -60.9862,7.993 -90.9861,-11.0071 -31,-22 -36.0036,-24.9957 -72.0036,-27.9957 -25,0 -47.0049,-4.9896 -25.0049,-29.9896 10.9999,-17 25.0007,-17.007 33.0008,-31.0069 10.9999,-11.0001 19.9998,-33.0018 19.9998,-46.0018 2,-19.9999 -10.9999,-23.0047 0,-45.0047 11,-16.0001 30.0078,-33.0018 44.0079,-46.0017 22,-28 48.9995,-52.9923 59.9996,-88.9923 9,-27.0001 2.9907,-60.0065 2.9907,-91.0065 3,-33 13.9938,-57.9953 21.9938,-87.9954 14.0001,-40.9999 14.0175,-57.9953 -18.9825,-87.9952 -28,-28.0001 -32.9995,-64.0007 -79.9995,-53.0007 -17,3 -25.017,13.9979 -41.017,13.9979 -50,0 -33.9846,-44.0036 -24.9846,-72.0036 8.0001,-19 7.9867,-40.9996 10.9867,-59.9996 5,-44.0001 15.9988,-85.9982 26.9989,-126.9982 5.9999,-16.9999 21.9998,-43.9965 19.9998,-60.9964 -3,-33.0001 -21.9987,-24.0008 -46.9987,-33.0008 -35.9999,-11.0001 -13.9845,-11.0079 -24.9846,-44.0079 -10.9999,-25 -36.0057,-15.9937 -58.0057,-21.9937 6,-25 16.9952,-58.0038 -25.0049,-52.0038 -13.9999,2.0001 -59.9904,33.0079 -62.9904,44.0079 -25,5 -33.0016,-36.0049 -66.0016,-25.0049 -31,8 -32.9985,38.9987 -66.9985,46.9986 -11,30 46.9844,46.9954 44.9845,87.9954 -64,11 -192.9998,105.0082 -192.9998,-15.9918 0,-23 19.0121,-39.0057 16.0121,-58.0057 0,-25 -22.0078,-27.9866 -44.0078,-30.9866 -21.9999,-1.9999 -39.0057,-0.01 -58.0057,-5.005 -19,-8 -37.9965,-28.0069 -60.9965,-31.0069 -2,-27 -2.001,-37.9885 -13.0009,-56.9884 16,-28 63.0148,-41.9994 55.0148,-79.9995 -19,-9 -39.0057,-9.007 -58.0057,-11.007 -28,-3 -41.0016,-16.9909 -66.0016,-2.9908 -33,19 -58.0064,54.9883 -91.0065,76.9882 -19.9999,14 -13.9998,3.0008 -19.9998,33.0008 -5,28 -23.9988,58.0014 -26.9988,86.0014 -6,33 5.0062,66.0046 -21.9937,85.0046 -17.0001,10.9999 -30.0079,2.9958 -44.0079,7.9959 -20,6 -21.9865,11.0048 -30.9865,25.0049 -35.0001,52.9999 -41.0046,3 -85.0046,0 -30,-3 -61.0064,13.9937 -91.0065,21.9937 -33,9 -60.9973,9 -93.9972,0 -11.0001,-5 -26.9968,-15.9937 -40.9967,-21.9937 -61,-14.0001 -64.0003,31.0006 -113.0003,53.0006 -28,13.0001 -61.0065,10.9897 -91.0064,29.9896 -31,19 -53.0015,25.012 -86.0015,36.012 -33.0001,8 -59.9862,24.9855 -90.9862,37.9855 -55,25 -118.0018,61.0128 -179.0018,69.0127 -60.9999,9 -118.0018,31.0029 -179.0019,39.0028 -54.9999,8 -108.01,7.9979 -163.0099,13.9979 -71.0001,7.9999 -58.0024,92.992 -99.0025,128.992 -22,22 -51.9953,33.0049 -87.9953,25.0049 -20,-3 -24.9936,-18.9988 -41.9936,-26.9988 -11,-9 -33.0017,-14.0091 -46.0017,-17.0091 -31,-7.9999 -66.9993,-3.002 -99.9993,-6.002 -52,-4.9999 -90.9961,-43.9933 -120.9961,-81.9932 -39.0001,-44.0001 -65.9982,-69.0015 -126.9981,-86.0015 -50.0001,-11.0001 -50.0087,-57.9912 -77.0087,-95.9912 -16.9999,-22 -40.9967,-42.0036 -40.9967,-72.0035 0,-28.0001 16.0009,-51.9975 33.0008,-73.9975 24,-42 49.0008,-80.0043 33.0008,-125.0043 -19.9999,-49 -39.0119,-93.001 -36.0119,-146.0011 4.9999,-81.9999 -18.9982,-219.9933 -126.9982,-214.9934 -32.9999,0 -44.0035,2.993 -72.0036,-11.007 14.0001,-14 36.0191,-8.0049 47.0191,-25.0049 14,-13 21.9845,-34.99454 24.9845,-54.99459 3,-21.99991 6.0071,-35.99445 11.0071,-54.99448 8,-29.99996 0.01,-36.01489 -21.9937,-55.01489 -28,-21.99999 -50.0149,-57.98813 -55.0149,-96.98814 -3,-11 3,-22.00079 0,-33.00079 -11,-41 -21.9986,-82.00529 -46.9987,-118.00529 -25,-33 -54.9973,-31.00691 -93.9973,-31.00691 -33,0 -66.0023,6 -99.0024,0 -21.9999,0 -24.9967,-9.3e-4 -40.9966,-13.00093 -14.0001,-13.99999 -27.9895,-38.99161 -49.9895,-35.99161 -36,5 -39.0106,58.0057 -83.0106,58.0057 -30,0 -58.0046,-22.00079 -85.0046,-33.00078 -13.9999,-6.00001 -19.9916,-3.002 -35.9916,-6.002 -21.9999,-5 -49.9944,-15.99375 -74.9943,-21.99374 -19,-5.00001 -60.0067,-11.00997 -71.0067,-30.00998 -6,-10.99999 -8.002,-57.9924 -6.002,-68.9924 3,-24.99999 31.0069,-44.01275 31.0069,-69.01275 0,-14 -11.0132,-16.98962 -9.0131,-29.98962 6,-20 25.0008,-14.01103 33.0007,-23.01103 31,-27.00001 -1.9987,-37.99959 -26.9987,-59.99959 -22,-17 -49.9937,-30.98735 -41.9936,-63.98735 -19,-5.00001 -34.9945,-22.00997 -54.9946,-30.00997 -2,-41 19.9867,-76.996123 10.9867,-120.996121 -16,0 -34.9833,2.009182 -51.9834,-2.99082 -14.875,-2.625005 -25.1616,-17.518061 -42.2377,-19.186034 z M 115.02131,694.71213 c -15.375001,0.28126 -31.873788,5.33896 -46.123749,7.58897 -11.961551,2.51822 -27.023206,2.55431 -42.766759,2.15664 16.717024,16.61149 31.282933,33.23557 48.768733,49.84706 1.999963,6.00001 27.000805,38.99986 33.000805,19.99987 10.99995,-58.00001 33.0108,-0.0115 63.01078,-3.01118 22.00001,-5.99999 40.98534,13.99588 57.98529,7.99589 15.74585,-5.03866 18.29479,-20.00808 20.10162,-35.1371 -7.00826,7.72039 -13.78161,15.72374 -20.10162,24.15039 -24.99991,-25 -61.00238,-66.00357 -99.00231,-72.00357 -4.75005,-1.25 -9.74772,-1.68072 -14.87279,-1.58697 z m 326.89501,7.52792 c 1.89715,5.25688 3.50856,10.89877 4.98476,17.04974 1.30431,9.56469 7.1967,15.88085 13.87578,21.56649 -5.87364,-12.24416 -12.65324,-27.07263 -18.86054,-38.61623 z" />
 <path
   id="South_Goa"
   d="m 5754.9012,3214.2879 c -63.9999,22 -127.0037,46.9995 -185.0038,79.9994 -36,22.0001 -71.989,44.0016 -109.9891,66.0017 -35.9999,19 -67.0135,41.0107 -102.0135,63.0107 -20,11 -33.9895,20.0008 -49.9895,33.0008 -21.9999,20 -52.0106,44.9915 -83.0106,55.9915 -16,8 -26.9967,2.0121 -40.9966,16.0121 -39.0001,30 -66.0025,82.9911 -99.0024,115.991 -36,36 -79.9982,61.0016 -126.9982,66.0016 -80,8 -154.9933,0 -234.9933,19.003 -32.9999,9 -52.0086,34.0006 -77.0086,53.0006 -19,16 -18.9874,18.9938 -43.9874,21.9938 -16,0 -28.008,-6.0021 -44.0079,-6.0021 -30,3 -65.9881,25.0028 -96.9881,39.0028 -60.0001,28 -68.0005,101.9989 -93.0004,159.9989 -14,36 -25.0007,19 -53.0007,0 -24.9999,-14 -44.0015,-29.9986 -66.0015,-46.9986 -19.0001,19 -44.0016,18.9957 -66.0016,27.9957 -28.0001,8 -50.0036,22.015 -72.0036,35.015 -52,25 -127.0052,30.9882 -138.0052,96.9882 -5,40.9999 28.012,39.0107 36.0119,63.0107 0,6 -37.9987,68.9924 -26.9987,68.9924 19,3 18.9804,-11.0029 32.9804,-19.0029 25,-11 19.0171,-8.0041 41.017,7.9959 17.0001,13.9999 49.9944,28.0049 74.9944,25.0049 5.0001,28 -0.01,61.0065 1.9939,91.0065 22.0001,3 47.0128,-0.01 69.0128,2.9908 10.9999,33 -22.0059,19.003 -38.0059,19.003 5.0001,0 8.0009,8.007 13.001,11.007 -5.0001,17 -10.9959,30.9987 -7.9959,46.9987 31,0 65.9883,-10.9952 76.9882,25.0049 6.0001,13.9999 -4.9999,32.9875 0,43.9874 11.0001,28 47.0058,44.0036 58.0057,72.0036 11.0001,27 -8.007,63.0065 -11.007,91.0065 0,11 -3,32.9875 0,43.9875 3,19.0001 20.0141,27.0078 22.0141,44.0079 3.0001,30 -33.0078,63.0065 -44.0078,91.0064 -27,61.0001 -52.0107,118.9815 -83.0106,178.9816 -8.0001,16.9999 -12.9938,33.0189 -21.9938,47.019 -13,22 -21.9866,21.9874 -10.9867,43.9874 11,22 66.9861,74.9944 90.9861,74.9944 9.0001,27 -12.9867,63.0116 -10.9866,96.0116 3,35.9999 49.9852,68.9881 77.9852,96.9882 -14,26.9999 -46.9874,58.0136 -63.9873,82.0136 -16.0001,25 -25.017,55.9852 -41.017,77.9852 -25.0001,-9 -52.9995,5.0184 -79.9995,-5.9817 -14,-7.9999 -30.9824,-35.9986 -38.9825,-46.9986 -19,-27 -29.9995,-47.0119 -59.9995,-36.012 -17.0001,6 -49.9986,21.998 -66.9985,13.9979 -24.0001,-8 -8.001,-32.9854 -13.001,-57.9853 -6,-19 -17.0049,-25.0059 -25.0049,-38.0059 -14.0001,-28 -11.007,-86.0003 -11.007,-113.0003 -42.0001,-13.9999 -74.9911,-39.0098 -115.9912,-50.0098 -19,-6 -35.9965,-10.9867 -60.9965,-10.9867 -21.9999,3 -41.0108,19 -63.0107,0 -30,-25 -27.9995,-77.0085 -79.9994,-77.0085 -19.0001,0 -49.9925,12.9936 -68.9925,21.9936 -47,19 -77.0093,30.003 -130.0093,19.003 -37.9999,-8 -54.9995,-28.0016 -59.9995,-66.0017 -6,-54.9999 -9.005,-118.9967 -25.0049,-173.9967 -8.0001,-25 -18.9846,-47.0035 -24.9846,-72.0036 -5.0001,-26.9999 3,-56.9841 0,-84.9841 -3,-63 -39.0046,-83.0023 -85.0045,-119.0022 -9,-8.0001 -20.0049,-19.008 -25.005,-24.008 -13.9999,-9 -18.9915,-5.9928 -35.9916,-8.9928 -30,-5 -36.0098,-19.0079 -50.0098,-44.0079 -27,-41 -62.9941,-94.0023 -114.9941,-99.0024 -31,-3 -61.0065,3 -91.0065,0 -25,0 -50.0056,-10.9866 -78.0056,-10.9866 -0.073,-1.9406 -0.2166,-3.954 -0.3052,-5.9003 -1.5983,2.1295 -4.0118,1.9957 -7.6907,-2.1159 -13.9999,-19 -11.0028,-52.9833 -19.0029,-71.9833 -14,-30 -27.9916,-63.0176 -35.9915,-94.0176 -11.0001,-33 -14.0008,-68.9912 -33.0008,-95.9913 -44.0001,-64 -148.9997,-27.9987 -212.9996,-46.9986 -22.0001,-8 -41.0016,-30.005 -66.0016,-25.0049 -49,6 -85.0052,28.009 -138.0051,17.009 -30.0001,-9 -59.9954,-5.9979 -87.9954,-13.9978 -19,-6 -71.0087,-44.0163 -77.0086,-8.0163 -33,-8.9999 -32.9967,19.0079 -40.9966,44.0079 -11.0001,27 -31.0008,16.0028 -53.0007,19.0029 -19,3 -49.0016,30.0049 -66.0016,25.0049 -19,-8 -32.9875,-8.0161 -43.9875,-28.0161 -19,-25 -30.0107,-29.9896 -63.0108,-29.9896 -11,0 -21.9865,2.9958 -30.9866,7.9958 -7.9999,3 -11.0028,17 -19.0028,20 -11.0001,4.9999 -28.012,-13.9887 -36.0121,-16.9887 -7.9999,-3 -18.9896,-3.0113 -29.9895,-3.0113 -25,3 -41.9946,5.9958 -54.9946,27.9957 -13.9999,-13.9999 -25.0049,-11.0007 -25.0049,-33.0007 3,-17 27.0051,-35.9895 5.0051,-49.9895 -24,-19 -58.0138,-36.005 -82.0137,-5.005 -22,22 -30.9986,40.9946 -66.9986,34.9946 -10.9999,-2 -34.9966,9.0042 -40.9965,-7.9958 -5.0001,-11 -3.0051,-25.0058 -5.0051,-38.0059 -9,-31 -60.9945,-49.9866 -74.9944,-10.9867 -8.0001,24 3.0103,81.9861 -29.9897,90.9862 -33,8 -66.0086,-2.9978 -77.0086,-33.9978 -11,-30 -33.9985,-40.9966 -66.9985,-40.9966 -11,-36.0001 -43.9994,-40.9987 -79.9994,-46.9987 -22,0 -71.0087,-19.0021 -77.0087,13.9979 -8,36 44.0149,52.0106 55.0149,83.0106 9,27 30.9887,24.9945 16.9887,54.9945 -14,36.0001 41.0108,29.9988 63.0107,26.9988 39.0001,0 52.9995,-2.0042 79.9995,27.9958 9,8 27.9957,8.0029 27.9957,19.0029 0,10.9999 -3.0111,24.9916 -3.0111,35.9916 -5,28 -15.9981,69.0065 6.0019,91.0065 19.0001,19.0001 46.0128,-22.0041 69.0128,7.9958 8,9.0001 10.9877,35.9978 23.9877,33.9978 10.9999,-2.9999 25.0119,-5.9816 36.0119,-5.9816 11,3 13.9937,18.9846 21.9937,24.9846 9.0001,10.9999 25.0028,21.9987 39.0029,26.9987 24.9999,11.0001 46.9903,-22 62.9903,0 25,28 36.0077,61.0014 64.0077,86.0015 19,16 71.0004,16.005 93.0004,5.005 14,-7.9999 10.9999,-23.9946 19.9999,-34.9946 10.9999,-11.0001 32.9986,-6.0132 46.9987,-9.0132 23.9999,-5 69.0085,-7.9855 77.0085,-37.9855 27.0001,-3 68.9862,-11.0041 90.9862,7.9958 25,19 46.9996,46.9975 59.9996,73.9975 30.9999,50 52.9994,105.005 79.9994,158.0051 28,51.9999 45.0078,101.9877 64.0077,156.9877 16,44 35.9945,82.0185 54.9946,127.0184 8,16 14.009,40.9996 17.009,59.9997 0,16.9999 12.9938,35.9945 21.9937,54.9944 16.0001,39.0001 26.9967,82.9981 40.9967,126.9982 8,32.9999 25.012,71.9951 36.012,107.9952 10.9999,30 15.9846,59.9952 24.9846,87.9953 4.9999,22 0.01,44.0169 11.007,61.0168 11,19 19.0099,40.9996 30.01,59.9996 19,33 16.9887,79.9819 16.9887,118.982 0,27.9999 15.9946,47.0107 34.9946,63.0107 17.0001,20 16.9979,28.0007 13.9979,53.0006 0,30.0001 22.0049,51.9934 25.0049,81.9934 0,11 7.9979,22.9978 13.9979,33.9977 5,8 3.0111,22.0008 3.0111,33.0008 0,19 1.9867,44.0108 10.9867,63.0108 8.0001,25 13.0141,54.9902 22.0141,82.9902 5.0001,25 15.9918,48.9975 15.9918,73.9975 0,22 -3.0042,44.0077 7.9959,64.0077 9,16 11.009,29.9986 17.009,46.9987 33,84.9999 52.0035,172.9951 72.0036,260.9951 l 1.9939,6.002 v 3.0112 c 11,29.9999 21.9958,62.9973 27.9958,93.9973 3,22 11.007,45.9954 11.007,67.9954 0,20.0001 -7.9981,55.9924 6.002,68.9925 29.9999,31 19.0029,-48.9854 19.0029,-57.9854 -3,-15.9999 15.9938,-35.0037 21.9938,-52.0037 15.9999,11 13.9937,33.0037 21.9936,52.0037 5.0001,14 28.0142,27.9986 22.0141,46.9986 -3,11.0001 -14.0029,21.9917 -19.0028,35.9917 -3,13.9999 0,31.0078 0,44.0078 0,20 19.0001,49.9938 -20,21.9938 -18.9999,-13 -41.0056,-52.008 -58.0057,-24.008 -12.9999,24 -27.0036,57.0066 -52.0036,71.0067 -11.0001,5.9999 -8.003,5.9928 -19.003,8.9928 -11,0 -27.9916,8.0162 -35.9916,8.0162 -3,7.9999 21.9958,24.9896 27.9958,29.9895 16,14.0001 13.0121,29.9987 16.0121,46.9987 5.9999,39.0001 10.99,82.9954 -30.01,87.9954 -3,9 -5.9938,55.0078 -21.9938,44.0078 -19.9999,-11 -20.0139,-19.0029 -42.0139,-19.0029 -24,0 -18.9896,19.0007 -29.9897,33.0008 -6,6 -25.0007,11.009 -33.0008,17.009 -13.9999,11.0001 -30.0097,16.001 -50.0098,13.001 -4.9999,0 -26.9895,2.9928 -29.9895,8.9928 -11.0001,22 18.9957,10.9959 27.9957,7.9959 19,-5.0001 12.9937,0 21.9937,7.9958 1e-4,3 2.0142,3 2.0142,0 11.0001,9 35.9916,3.009 35.9916,17.0091 -3,22 -2.9958,47.0016 -7.9959,66.0016 -7.9999,29.9999 -14.0048,5.9937 -25.0049,21.9936 -7.9999,11.0001 -14.0048,40.9987 -25.0049,46.9987 -19,3 -24.9967,11.003 -40.9966,19.0029 -8,3 -7.9979,10.9999 -13.9978,19.9999 -5.0001,8 -15.9989,-0.01 -26.9989,1.9939 -3,3 -17.007,11.009 -11.007,17.009 1.9999,5.0001 16.0141,2.9908 22.0141,2.9908 13,0 29.9855,13.008 37.9854,24.008 0,3 36.0079,-30.0008 44.0079,-33.0008 22,-1.9999 42.0057,0.01 58.0057,11.0071 8,9 39.0027,21.9866 39.0027,30.9865 0,27 -3.0062,36.0191 21.9938,47.019 14.0001,8.0001 30.0079,4.9806 44.0079,12.9807 8,6 10.9938,17.014 21.9937,22.0141 11,6 46.9905,-2.0143 62.9904,-2.0143 17,0 47.0077,-5.9858 64.0078,2.0143 7.9999,6 18.9907,30.9865 2.9907,30.9865 -3,11 24.0008,14.0121 33.0008,16.0121 h 2.0142 c 6,0 8.9979,-0.01 13.9979,2.9909 h 2.9908 c 14.0001,3 30.0028,6.0029 39.0028,19.0028 8.0001,11.0001 8.008,13.9979 24.008,13.9979 17.0001,-3 19.9998,0 19.9998,19.0029 -2.9999,11.0001 10.9868,17.0112 10.9868,3.0111 4.9999,1e-4 30.0099,18.9846 30.0099,24.9846 0,6 -7.9958,11.003 -7.9958,19.003 0,14 7.9958,25.0028 7.9958,39.0027 0,11.0001 11.0071,22.0101 11.0071,30.01 0,6 13.9887,8.9928 16.9887,8.9928 13,8.0001 19.0099,1.998 30.01,-6.0019 7.9999,-3 21.9957,-8.0091 27.9957,-17.0091 5,-5 -3.0111,-18.9987 -3.0111,-26.9988 13.9999,0 19.0007,14.007 33.0008,11.007 7.9999,-2.9999 14.0048,-10.9978 25.0049,-13.9978 7.9999,-3 2.0049,17.0029 5.0049,19.0029 3,9 -10.9978,5.9928 -13.9978,8.9928 -19,8.0001 -32.9988,0 -26.9988,25.0049 5,16 15.9845,45.9885 24.9845,56.9885 16,14 25.0009,42.0057 33.0008,58.0056 11.0001,22 36.0008,44.0037 33.0008,72.0036 -3,33.0001 -32.9894,0.01 -49.9895,17.0091 -10.9999,11 -8.0091,12.9825 2.9909,18.9825 6,3 8,16.003 0,19.003 -3,0 -16.9979,-11 -13.9979,0 0,11 16.9938,7.9959 21.9938,7.9959 14,0 11.009,28.0028 17.009,39.0027 5,8 30.0079,52.0078 44.0078,44.0079 19,-14.0001 10.9825,-36.01 38.9825,-30.01 13,3 13.0029,14.0141 19.0029,22.0141 5,5.0001 27.0008,-3.0112 33.0008,-3.0112 27,0 15.9987,49.9967 46.9987,40.9967 13.9999,-2 51.9996,0.021 59.9995,14.0182 6,9 -1.9888,19.9865 3.0113,30.9866 3,0 11.007,11.0009 11.007,13.0009 3,10e-5 10.9979,-26.9896 13.9979,-29.9896 13.9999,-14.0001 7.9957,-50.0058 27.9957,-58.0057 37.9999,-19 10.9866,28.0028 10.9866,39.0028 0,19 8.008,26.9916 24.008,35.9916 20.0001,13 45.007,27.0149 31.0069,55.0149 -13.9999,27 -2.9971,29.9895 19.0029,29.9895 55,0 21.993,47.01 -11.007,50.01 -10.9999,35.9999 51.9946,0 54.9946,0 19.9999,-3 50.0098,26.9986 50.0098,46.9985 0,16 -11.0133,51.9905 10.9867,62.9905 11,6 41.0037,-5.9959 52.0037,-7.9959 28,0 57.9994,-2.9929 79.9994,11.007 28,14.0001 36.0057,2.9931 58.0057,-11.007 3,0 29.9897,-20.002 29.9897,-6.002 0,8 -1.9959,16.9999 -7.9959,19.9999 -13.9999,8 -24.9855,19.0079 -37.9854,24.008 0,0 -6.0113,2.9908 -3.0113,2.9908 -31,8 -72.0043,5.9908 -105.0043,2.9908 -28,-6 -18.9875,22.0141 -43.9875,22.0141 -14.0001,0 -55.0037,-8.0021 -52.0037,13.9979 0,22 43.9884,16.0079 56.9883,24.008 17.0001,9 42.0141,19.9844 42.0141,44.9844 0,30 8.0048,27.0036 25.0049,52.0036 10.9999,14.0001 12.9876,36.0038 23.9876,52.0038 6,9 -8,49.9915 0,55.9915 6,-20 24.9977,-36.0007 33.9977,-53.0007 35,3 -23.0049,55.0149 -25.0049,55.0149 8,-2 52.0059,-19.0072 38.0058,8.9928 -1.9999,5.0001 -26.9916,4.9959 -35.9916,7.9959 -8,8 -19.0141,16.0099 -22.0141,30.01 -1.9999,6 0,24.9846 -7.9959,24.9846 -7.9999,3 -13.9917,5.0182 -15.9917,14.0181 -6,14 0.01,24.9916 -8.9928,35.9917 -2,10.9999 -8.0162,19.0007 -8.0162,33.0008 -1e-4,27 30.0099,46.9974 30.0099,73.9974 0,17 -5.007,36.0007 -11.007,53.0006 -5,8.0001 -13.0029,11.003 -19.0029,19.003 -3.0001,5 8.002,13.9938 6.002,21.9937 -3,14 -6.002,22.012 -6.002,36.012 -3.0001,26.9999 -2.9859,54.9863 22.0141,70.9862 l 10.9866,3.0113 c 17.0001,6 30.0099,7.9979 50.0098,13.9978 27.0001,8 54.9864,-5.997 70.9864,19.003 9,9 14.0048,19.9886 25.0049,16.9886 14,0 21.9958,5.0121 27.9957,16.0121 5,9 3.0183,16.9887 14.0182,16.9887 8.0001,-3 21.9826,-13.9937 18.9827,-21.9937 32.9999,-6.0001 74.0135,8.0021 102.0135,-13.998 21.9999,-15.9999 38.9875,7.9958 43.9874,27.9958 8.0001,27.0001 17.0121,54.9975 36.012,73.9975 1.2056,1.0417 2.4846,1.9448 3.7233,2.9298 32.6607,-11.0069 62.3205,-29.0092 87.2629,-60.9355 41,-52 69.0143,-87.9953 135.0143,-87.9953 14,-3 19.0008,8.0111 33.0008,3.0112 14,-6 17.0008,-25.0161 33.0007,-28.0162 33.0001,-5 49.9995,28.0021 79.9995,6.0021 19,-17.0001 16.9876,-54.9874 43.9875,-63.9874 42,-11.0001 121.999,-5.0133 159.9989,10.9867 30.0001,11 38.9994,38.9986 79.9995,46.9986 28,6.0001 33.0037,6.005 52.0037,25.005 23,21.9999 22.9965,44.0119 60.9966,36.012 35.9999,-6 66.0035,-39.0037 72.0035,-72.0036 -30,-25 -39.0058,-57.9954 -58.0057,-87.9954 -19,-33 -38.9895,-61.0085 -49.9895,-97.0085 -8,-37.9999 -19.0051,-51.9953 -5.005,-87.9953 16,-39 22.0049,-55.0023 25.0049,-99.0024 29.9999,3 27.0017,-16.9958 46.0017,-27.9957 17,-8 25.0047,-2 45.0048,0 16,0 34.9833,-5 51.9833,0 33.0001,6 11.0161,2.9937 28.0162,21.9938 23.9999,31 33.0015,35.9894 66.0015,49.9895 36,13.9999 57.9945,22.0015 54.9945,66.0015 11,3 49.9945,11.0141 54.9946,22.0141 11,25 -14.003,32.9945 -19.0029,54.9945 -9,25 -5.9931,24.9987 11.007,46.9987 11,14 27.0078,22.0008 44.0078,33.0008 8,6 29.9967,32.9916 40.9967,35.9916 27.9999,6 49.9943,-76.9821 74.9943,-98.9821 13.0001,-16.9999 36.0079,-19.0078 44.0079,-44.0077 8.0001,-14.0001 7.9959,-52.9924 7.9959,-68.9925 36,-2.9999 55.0014,-8.0029 86.0014,-19.0029 27,-12 62.9995,-12.0139 79.9995,-42.0139 16,-27.0001 -3.0082,-62.9862 15.9917,-90.9862 14.0001,-22 58.0107,-52.0129 83.0106,-49.0129 8.0001,33.0001 43.9976,60.0067 73.9975,71.0067 50,22 38.9986,-16.0058 46.9987,-58.0058 6,-10.9999 8.0029,-40.9925 19.0029,-48.9924 14,-17.0001 32.9986,0 46.9987,-13.998 11,-11 10.9999,-39.0098 19.9998,-50.0098 11,-14 34.9947,-15.9966 34.9947,-40.9966 -2,-66.0001 -151.0002,-91.006 -113.0002,-171.006 13.9999,-30 31.0056,-24.9958 58.0057,-27.9958 36,-4.9999 107.9953,-10.9995 87.9953,-59.9995 -8,-17 -16.007,-5.9958 -11.0071,-27.9957 9,-27.0001 50.0128,-63.0046 69.0128,-85.0046 17,-17 36.0007,-32.9894 53.0006,-49.9895 27,-22 54.9926,-29.9974 48.9926,-73.9974 -2,-39 -7.9951,-56.0015 25.0049,-86.0014 31,-30.0001 54.9881,-43.9987 96.9881,-46.9987 2.0001,-25 2.0001,-54.9995 0,-79.9995 -64,-4.9999 -65.9873,-74.0073 -63.9873,-124.0073 0,-30 -0.01,-46.9965 -30.0099,-60.9965 -25,-11 -49.9946,-2.0058 -54.9946,-38.0058 -11,-53 5.0021,-105.003 -13.9979,-152.0031 -10.9999,-25 -4.9959,-44.0066 -7.9959,-71.0066 -6,-36 -22.0149,-24.9866 -55.0149,-30.9866 -2.9999,-27 13.0171,-73.9953 41.0171,-87.9953 35.9999,-19 46.9853,0 57.9854,-46.9986 4.9999,-25.0001 8.012,-47.0036 16.0121,-72.0036 3,-16 24.9937,-52.0127 21.9937,-69.0128 -5,-19 -35.0058,-40.9954 -38.0058,-67.9954 -3,-25 19.014,-41.9985 22.014,-66.9985 5,-33.0001 -3.0182,-47.0067 -14.0181,-71.0067 -11.0001,-31 -2.9951,-43.9853 25.0049,-57.9854 40.9999,-19.9999 69.0134,-14.0097 102.0135,-50.0098 27.9999,-33 49.9883,-72.0043 76.9882,-105.0044 47.0001,-52 71.9953,-114.9906 107.9953,-175.9906 13.9999,-28 38.0121,-63.9953 16.0121,-87.9953 -11.0001,-17 -30.0079,-22.012 -44.0079,-36.0119 -11,-17.0001 -10.9978,-30.9895 -13.9978,-49.9895 -2.0001,-33 3.0082,-61.0158 -15.9918,-88.0157 -11,-14.0001 -28.0008,-27.9875 -33.0008,-43.9876 -6,-10.9999 -3,-32.9986 0,-46.9986 0,-14 4.9909,-25.0028 2.9908,-39.0028 -17,-2 -27.9936,9.0021 -41.9936,6.0021 -3,-31 -3.0121,-42.0017 -16.0121,-66.0016 -14,-28 -46.9832,-50.0036 -71.9832,-72.0036 -19,-14.0001 -21.9986,-10.9887 -46.9987,-16.9887 -29.9999,-8 -58.0157,-33.0171 -88.0156,-41.017 -31.0001,-8 -60.9862,-10.9846 -90.9862,-24.9846 -17,-5 -22.0139,-11.0071 -42.014,-11.0071 -22,0 -32.9925,-2.9958 -48.9925,-7.9959 -36,-13.9999 -52.9944,-47.0085 -74.9944,-77.0086 -8,-14 -44.01,-80.0065 -30.0099,-91.0064 3,-3 38.9966,-5.9928 40.9967,-8.9928 13.9999,-2.0001 28.0138,-5.0071 42.0139,-11.0071 30,-13 48.9904,-48.9994 62.9903,-79.9994 19.0001,-35.0001 36.0099,-65.9872 50.0099,-103.9871 14,-47 24.9832,-53.0099 71.9832,-50.0099 11,0 11.0141,-8.002 22.0141,-6.002 2.0001,3 11.001,12.0041 13.001,12.0041 10.9999,7.9999 28.0028,19.0008 39.0027,13.0008 19.0001,-7.9999 21.9876,-33.0058 43.9876,-38.0057 24.9999,-6 30.0078,11.0132 44.0077,-10.9868 11.0001,-20 11.0007,-85.9965 53.0008,-60.9965 7.9999,6 15.9876,27.9916 23.9875,35.9916 11,11 22.0029,15.9938 39.0028,21.9938 28,7.9999 60.9953,10.9979 87.9954,13.9979 10.9999,1.9999 28.0027,8.0162 39.0028,8.0162 25,-3 14.0008,-11.005 33.0008,-25.0049 24.9999,-16.0001 55.0106,18.9958 83.0106,7.9957 24,-10.9999 54.9904,-63.0044 62.9904,-85.0044 19,-36 -15.9876,-60.9995 -43.9876,-79.9995 -30,-25 -55.0106,-54.9953 -83.0106,-87.9952 -21.9999,-28 -35.9966,-53.0015 -40.9966,-86.0015 -6,-52.0001 -8.0001,-123.9906 0,-175.9907 5,-27.9999 25.0099,-50.0086 30.01,-77.0086 7.9999,-31 -5.0141,-41.9986 -22.0141,-66.9985 -25,-38 -51.9897,-73.9961 -29.9897,-120.9962 16.0001,-32.9999 40.9905,-41.0127 62.9904,-69.0127 -27,-30 -58.0064,-29.9875 -91.0064,-43.9874 -30.0001,-11.0001 -37.9975,-50.0129 -73.9975,-69.0128 -58,-33.0001 -111.0018,-49.9895 -179.0018,-49.9895 -45.0001,0 -63.9974,-11.0079 -93.9973,-44.0078 -28.0001,-33.0001 -30.9846,-48.9862 -24.9846,-90.9862 3,-65.9999 -38.9883,-96.0101 -76.9883,-143.0101 -22,-25 -17.0092,-18.9875 2.9908,-43.9875 22,-28 38.0088,-63.9973 57.0088,-93.9974 16.9999,-24.9999 24.9846,-57.9953 24.9846,-87.9953 3,-41.9999 -4.9846,-58.0157 -24.9846,-88.0156 -16,-28 -27.0078,-60.9862 -44.0079,-90.9861 -16,-31 -37.9945,-58.0066 -54.9945,-91.0066 -30,-56 -65.9973,-118.9988 -93.9973,-179.9987 -19,-41.0001 -57.0088,-52.0116 -57.0088,-96.0116 z m -3118.6358,867.5628 c -2.8016,0.052 -5.6986,0.152 -8.5451,0.2437 15.9129,2.3807 31.7115,5.1446 47.1818,9.1964 3.0813,0.7 6.8798,1.7222 10.417,2.6042 -8.0328,-5.3992 -16.8733,-10.146 -30.4169,-11.597 -6,-0.5001 -12.2461,-0.5574 -18.6368,-0.448 z m 108.5853,40.6304 c 1.4471,1.5384 2.8216,3.1346 4.0488,4.8219 10.6822,14.4973 2.2046,28.9916 6.002,44.8216 0.1855,-8.3288 1.9939,-17.7385 1.9939,-22.8278 -2.3217,-16.7162 -6.0344,-23.1585 -12.0447,-26.8157 z m 24.8625,72.3697 c 18.5854,22.1493 32.1869,53.9507 32.1869,83.438 0,3.1353 0.2563,6.1537 0.6302,9.1148 1.5528,-29.3163 1.1688,-59.944 -20.6306,-86.1032 -4.6039,-3.3482 -8.5609,-4.9185 -12.187,-6.4496 z" />
</svg>